<?xml version="1.0" standalone="no"?><!DOCTYPE svg PUBLIC "-//W3C//DTD SVG 1.1//EN" "http://www.w3.org/Graphics/SVG/1.1/DTD/svg11.dtd"><svg height="1024" node-id="1" sillyvg="true" template-height="1024" template-width="1024" version="1.1" viewBox="0 0 1024 1024" width="1024" xmlns="http://www.w3.org/2000/svg" xmlns:xlink="http://www.w3.org/1999/xlink"><defs node-id="68"><clipPath id="clip-工作" node-id="9"><path d="M 0.00 0.00 L 1024.00 0.00 L 1024.00 1024.00 L 0.00 1024.00 Z" fill="#000000" fill-rule="nonzero" node-id="71" stroke="none" target-height="1024" target-width="1024" target-x="0" target-y="0"></path></clipPath><clipPath id="clip-path" node-id="3"><path d="M 523.30 578.10 L 517.80 617.50 L 516.00 632.70 L 514.10 653.00 L 513.80 674.10 L 514.10 682.30 L 515.70 696.60 L 518.40 708.60 L 522.50 721.00 L 533.70 747.00 L 548.50 782.70 L 550.00 785.80 L 550.90 786.90 L 553.90 788.70 L 556.80 789.50 L 560.50 789.90 L 564.20 789.90 L 568.10 789.30 L 573.00 787.80 L 577.10 785.20 L 578.60 783.60 L 579.90 781.60 L 580.60 779.50 L 580.90 777.00 L 580.60 774.10 L 577.70 763.10 L 563.00 720.20 L 559.40 708.90 L 557.90 702.20 L 559.20 684.30 L 564.30 627.80 L 562.00 585.80 Z" fill="#000000" fill-rule="nonzero" id="路径_1329" node-id="4" stroke="none" target-height="211.80005" target-width="67.10004" target-x="513.8" target-y="578.1"></path></clipPath><clipPath id="clip-path-2" node-id="5"><path d="M 551.60 586.50 L 555.40 619.70 L 560.70 659.30 L 563.70 677.40 L 566.60 691.30 L 575.90 722.30 L 588.40 760.30 L 600.00 794.20 L 601.20 795.10 L 602.80 795.40 L 608.90 795.50 L 612.60 795.10 L 620.40 793.40 L 623.80 792.10 L 627.70 789.70 L 629.10 788.40 L 630.10 786.90 L 630.60 785.30 L 630.60 783.50 L 613.30 706.30 L 609.60 689.30 L 606.50 671.50 L 606.40 669.40 L 608.50 636.60 L 608.80 620.10 L 608.70 611.60 L 607.50 595.20 L 606.40 587.80 L 605.40 583.00 L 602.80 575.10 L 601.40 572.50 L 599.90 570.50 L 598.30 568.90 L 596.60 567.80 L 593.90 566.80 L 591.10 566.30 L 588.00 566.30 L 584.80 566.80 L 578.10 569.00 L 573.20 571.40 L 568.40 574.10 L 559.90 579.90 L 551.60 586.50 Z" fill="#000000" fill-rule="nonzero" id="路径_1334" node-id="6" stroke="none" target-height="229.20001" target-width="79" target-x="551.6" target-y="566.3"></path></clipPath><clipPath id="clip-path-3" node-id="7"><path d="M 518.00 420.10 L 511.00 426.10 L 509.40 428.30 L 522.90 578.20 L 530.10 582.70 L 538.70 586.40 L 544.00 587.90 L 550.20 589.20 L 559.20 589.90 L 564.30 589.80 L 570.70 589.10 L 581.20 587.00 L 588.30 584.70 L 593.60 582.50 L 598.30 580.10 L 603.70 576.50 L 598.80 468.50 L 587.20 420.10 L 579.20 417.00 L 575.70 416.00 L 572.00 415.20 L 568.40 414.90 L 565.30 415.10 L 567.10 444.70 L 560.00 445.70 L 560.00 453.70 L 543.70 480.80 L 525.70 453.70 L 525.70 445.70 L 518.00 444.70 Z" fill="#000000" fill-rule="nonzero" id="路径_1320" node-id="8" stroke="none" target-height="175.00003" target-width="94.30002" target-x="509.4" target-y="414.9"></path></clipPath></defs><g clip-path="url(#clip-工作)" id="工作" node-id="11"><path d="M 0.00 0.00 L 1024.00 0.00 L 1024.00 1024.00 L 0.00 1024.00 Z" fill="#ffffff" fill-rule="nonzero" node-id="85" stroke="none" target-height="1024" target-width="1024" target-x="0" target-y="0"></path><path d="M 268.80 160.40 L 858.80 160.40 L 861.90 160.70 L 864.80 161.50 L 867.40 162.70 L 869.80 164.40 L 871.80 166.40 L 873.50 168.80 L 874.80 171.50 L 875.50 174.30 L 875.80 177.40 L 875.80 602.40 L 251.80 602.40 L 251.80 177.40 L 252.10 174.30 L 252.90 171.50 L 254.20 168.80 L 255.80 166.40 L 257.90 164.40 L 260.30 162.70 L 262.90 161.50 L 265.70 160.70 L 268.80 160.40 Z" fill="#d9e7ff" fill-rule="nonzero" group-id="1,7" id="矩形_2406" node-id="14" stroke="none" target-height="442.00003" target-width="624" target-x="251.8" target-y="160.4"></path><path d="M 268.80 160.40 L 858.80 160.40 L 861.90 160.70 L 864.80 161.50 L 867.40 162.70 L 869.80 164.40 L 871.80 166.40 L 873.50 168.80 L 874.80 171.50 L 875.50 174.30 L 875.80 177.40 L 875.80 209.40 L 251.80 209.40 L 251.80 177.40 L 252.10 174.30 L 252.90 171.50 L 254.20 168.80 L 255.80 166.40 L 257.90 164.40 L 260.30 162.70 L 262.90 161.50 L 265.70 160.70 L 268.80 160.40 Z" fill="#c6dbfc" fill-rule="nonzero" group-id="1,8" id="矩形_2407" node-id="15" stroke="none" target-height="49" target-width="624" target-x="251.8" target-y="160.4"></path><path d="M 298.80 188.40 L 298.20 191.90 L 296.50 194.90 L 293.90 197.00 L 292.30 197.80 L 288.80 198.40 L 285.30 197.80 L 282.40 196.00 L 280.20 193.40 L 279.00 190.20 L 279.00 186.60 L 279.50 184.90 L 281.20 182.00 L 283.80 179.80 L 285.30 179.00 L 288.80 178.40 L 292.30 179.00 L 295.30 180.80 L 297.50 183.40 L 298.20 184.90 L 298.80 188.40 Z" fill="#ffffff" fill-rule="nonzero" group-id="1,9" id="椭圆_706" node-id="16" stroke="none" target-height="20" target-width="19.799988" target-x="279" target-y="178.4"></path><path d="M 331.80 188.40 L 331.20 191.90 L 329.50 194.90 L 326.90 197.00 L 325.30 197.80 L 321.80 198.40 L 318.30 197.80 L 315.40 196.00 L 313.20 193.40 L 312.00 190.20 L 312.00 186.60 L 312.50 184.90 L 314.20 182.00 L 316.80 179.80 L 318.30 179.00 L 321.80 178.40 L 325.30 179.00 L 328.30 180.80 L 330.50 183.40 L 331.20 184.90 L 331.80 188.40 Z" fill="#ffffff" fill-rule="nonzero" group-id="1,10" id="椭圆_707" node-id="17" stroke="none" target-height="20" target-width="19.799988" target-x="312" target-y="178.4"></path><path d="M 364.80 188.40 L 364.20 191.90 L 362.50 194.90 L 359.90 197.00 L 358.30 197.80 L 354.80 198.40 L 351.30 197.80 L 348.40 196.00 L 346.20 193.40 L 345.50 191.90 L 344.80 188.40 L 345.50 184.90 L 347.20 182.00 L 349.80 179.80 L 351.30 179.00 L 354.80 178.40 L 358.30 179.00 L 361.30 180.80 L 363.50 183.40 L 364.20 184.90 L 364.80 188.40 Z" fill="#ffffff" fill-rule="nonzero" group-id="1,11" id="椭圆_708" node-id="18" stroke="none" target-height="20" target-width="20" target-x="344.8" target-y="178.4"></path><path d="M 176.80 255.40 L 765.80 255.40 L 768.90 255.70 L 771.80 256.50 L 774.40 257.70 L 776.80 259.40 L 778.80 261.40 L 780.50 263.80 L 781.80 266.50 L 782.50 269.30 L 782.80 272.40 L 782.80 696.40 L 159.80 696.40 L 159.80 272.40 L 160.10 269.30 L 160.90 266.50 L 162.20 263.80 L 163.80 261.40 L 165.90 259.40 L 168.30 257.70 L 170.90 256.50 L 173.70 255.70 L 176.80 255.40 Z" fill="#eef3fe" fill-rule="nonzero" group-id="2,12" id="矩形_2406-2" node-id="20" stroke="none" target-height="441.00003" target-width="623" target-x="159.8" target-y="255.4"></path><path d="M 176.80 255.40 L 765.80 255.40 L 768.90 255.70 L 771.80 256.50 L 774.40 257.70 L 776.80 259.40 L 778.80 261.40 L 780.50 263.80 L 781.80 266.50 L 782.50 269.30 L 782.80 272.40 L 782.80 305.40 L 159.80 305.40 L 159.80 272.40 L 160.10 269.30 L 160.90 266.50 L 162.20 263.80 L 163.80 261.40 L 165.90 259.40 L 168.30 257.70 L 170.90 256.50 L 173.70 255.70 L 176.80 255.40 Z" fill="#2f7fff" fill-rule="nonzero" group-id="2,13" id="矩形_2407-2" node-id="21" stroke="none" target-height="50" target-width="623" target-x="159.8" target-y="255.4"></path><path d="M 206.80 283.40 L 206.20 286.90 L 204.50 289.90 L 201.90 292.00 L 200.30 292.80 L 196.80 293.40 L 193.30 292.80 L 190.40 291.00 L 188.20 288.40 L 187.00 285.20 L 187.00 281.60 L 187.50 279.90 L 189.20 277.00 L 191.80 274.80 L 193.30 274.00 L 196.80 273.40 L 200.30 274.00 L 203.30 275.80 L 205.50 278.40 L 206.20 279.90 L 206.80 283.40 Z" fill="#ffffff" fill-rule="nonzero" group-id="2,14" id="椭圆_706-2" node-id="22" stroke="none" target-height="20" target-width="19.800003" target-x="187" target-y="273.4"></path><path d="M 239.80 283.40 L 239.20 286.90 L 238.40 288.40 L 236.10 291.00 L 233.00 292.80 L 229.30 293.40 L 225.70 292.80 L 222.60 291.00 L 220.30 288.40 L 219.00 285.20 L 219.00 281.60 L 219.50 279.90 L 221.30 277.00 L 224.00 274.80 L 225.70 274.00 L 229.30 273.40 L 233.00 274.00 L 236.10 275.80 L 238.40 278.40 L 239.20 279.90 L 239.80 283.40 Z" fill="#ffffff" fill-rule="nonzero" group-id="2,15" id="椭圆_707-2" node-id="23" stroke="none" target-height="20" target-width="20.800003" target-x="219" target-y="273.4"></path><path d="M 272.80 283.40 L 272.20 286.90 L 270.50 289.90 L 267.90 292.00 L 266.30 292.80 L 262.80 293.40 L 259.30 292.80 L 256.40 291.00 L 254.20 288.40 L 253.00 285.20 L 253.00 281.60 L 253.50 279.90 L 255.20 277.00 L 257.80 274.80 L 259.30 274.00 L 262.80 273.40 L 266.30 274.00 L 269.30 275.80 L 271.50 278.40 L 272.20 279.90 L 272.80 283.40 Z" fill="#ffffff" fill-rule="nonzero" group-id="2,16" id="椭圆_708-2" node-id="24" stroke="none" target-height="20" target-width="19.799988" target-x="253" target-y="273.4"></path><path d="M 236.80 358.40 L 325.80 358.40 L 328.00 358.70 L 329.90 359.50 L 331.50 360.70 L 332.70 362.40 L 333.50 364.30 L 333.80 366.40 L 333.80 456.40 L 333.50 458.50 L 332.70 460.40 L 331.50 462.10 L 329.90 463.30 L 328.00 464.10 L 325.80 464.40 L 236.80 464.40 L 234.70 464.10 L 232.80 463.30 L 231.20 462.10 L 229.90 460.40 L 229.10 458.50 L 228.80 456.40 L 228.80 366.40 L 229.10 364.30 L 229.90 362.40 L 231.20 360.70 L 232.80 359.50 L 234.70 358.70 L 236.80 358.40 Z" fill="#00d680" fill-rule="nonzero" group-id="2,17" id="矩形_2394" node-id="25" stroke="none" target-height="106" target-width="104.999985" target-x="228.8" target-y="358.4"></path><path d="M 236.80 519.40 L 325.80 519.40 L 328.00 519.70 L 329.90 520.50 L 331.50 521.70 L 332.70 523.40 L 333.50 525.30 L 333.80 527.40 L 333.80 615.40 L 333.50 617.50 L 332.70 619.40 L 331.50 621.10 L 329.90 622.30 L 328.00 623.10 L 325.80 623.40 L 236.80 623.40 L 234.70 623.10 L 232.80 622.30 L 231.20 621.10 L 229.90 619.40 L 229.10 617.50 L 228.80 615.40 L 228.80 527.40 L 229.10 525.30 L 229.90 523.40 L 231.20 521.70 L 232.80 520.50 L 234.70 519.70 L 236.80 519.40 Z" fill="#00d680" fill-rule="nonzero" group-id="2,18" id="矩形_2436" node-id="26" stroke="none" target-height="104" target-width="104.999985" target-x="228.8" target-y="519.4"></path><path d="M 374.80 371.40 L 709.80 371.40 L 711.40 371.70 L 712.70 372.60 L 713.50 373.80 L 713.80 375.40 L 713.80 389.40 L 713.50 391.00 L 712.70 392.20 L 711.40 393.10 L 709.80 393.40 L 374.80 393.40 L 373.30 393.10 L 372.00 392.20 L 371.20 391.00 L 370.80 389.40 L 370.80 375.40 L 371.20 373.80 L 372.00 372.60 L 373.30 371.70 L 374.80 371.40 Z" fill="#ffffff" fill-rule="nonzero" group-id="2,19" id="矩形_2432" node-id="27" stroke="none" target-height="22" target-width="343" target-x="370.8" target-y="371.4"></path><path d="M 374.80 530.40 L 709.80 530.40 L 711.40 530.70 L 712.70 531.60 L 713.50 532.80 L 713.80 534.40 L 713.80 549.40 L 713.50 551.00 L 712.70 552.20 L 711.40 553.10 L 709.80 553.40 L 374.80 553.40 L 373.30 553.10 L 372.00 552.20 L 371.20 551.00 L 370.80 549.40 L 370.80 534.40 L 371.20 532.80 L 372.00 531.60 L 373.30 530.70 L 374.80 530.40 Z" fill="#ffffff" fill-rule="nonzero" group-id="2,20" id="矩形_2435" node-id="28" stroke="none" target-height="23" target-width="343" target-x="370.8" target-y="530.4"></path><path d="M 374.80 429.40 L 709.80 429.40 L 711.40 429.70 L 712.70 430.60 L 713.50 431.80 L 713.80 433.40 L 713.80 448.40 L 713.50 450.00 L 712.70 451.20 L 711.40 452.10 L 709.80 452.40 L 374.80 452.40 L 373.30 452.10 L 372.00 451.20 L 371.20 450.00 L 370.80 448.40 L 370.80 433.40 L 371.20 431.80 L 372.00 430.60 L 373.30 429.70 L 374.80 429.40 Z" fill="#ffffff" fill-rule="nonzero" group-id="2,21" id="矩形_2433" node-id="29" stroke="none" target-height="23" target-width="343" target-x="370.8" target-y="429.4"></path><path d="M 374.80 589.40 L 709.80 589.40 L 711.40 589.70 L 712.70 590.60 L 713.50 591.80 L 713.80 593.40 L 713.80 610.40 L 713.50 612.00 L 712.70 613.20 L 711.40 614.10 L 709.80 614.40 L 374.80 614.40 L 373.30 614.10 L 372.00 613.20 L 371.20 612.00 L 370.80 610.40 L 370.80 593.40 L 371.20 591.80 L 372.00 590.60 L 373.30 589.70 L 374.80 589.40 Z" fill="#ffffff" fill-rule="nonzero" group-id="2,22" id="矩形_2434" node-id="30" stroke="none" target-height="25" target-width="343" target-x="370.8" target-y="589.4"></path><path d="M 124.80 545.40 L 378.80 545.40 L 381.90 545.70 L 384.80 546.50 L 387.40 547.70 L 389.80 549.40 L 391.80 551.40 L 393.50 553.80 L 394.80 556.50 L 395.50 559.30 L 395.80 562.40 L 395.80 747.40 L 395.50 750.50 L 394.80 753.30 L 393.50 756.00 L 391.80 758.40 L 389.80 760.40 L 387.40 762.10 L 384.80 763.30 L 381.90 764.10 L 378.80 764.40 L 124.80 764.40 L 121.70 764.10 L 118.90 763.30 L 116.30 762.10 L 113.90 760.40 L 111.80 758.40 L 110.20 756.00 L 108.90 753.30 L 108.10 750.50 L 107.80 747.40 L 107.80 562.40 L 108.10 559.30 L 108.90 556.50 L 110.20 553.80 L 111.80 551.40 L 113.90 549.40 L 116.30 547.70 L 118.90 546.50 L 121.70 545.70 L 124.80 545.40 Z" fill="#2f7fff" fill-rule="nonzero" group-id="3,23" id="矩形_2412" node-id="32" stroke="none" target-height="219" target-width="288" target-x="107.8" target-y="545.4"></path><path d="M 208.80 545.40 L 294.80 545.40 L 294.80 682.40 L 253.60 647.40 L 208.80 682.40 Z" fill="#cbdefc" fill-rule="nonzero" group-id="3,24" id="路径_1173" node-id="33" stroke="none" target-height="137" target-width="85.999985" target-x="208.8" target-y="545.4"></path><path d="M 856.30 380.90 L 861.90 381.20 L 867.40 381.90 L 872.60 383.20 L 877.70 384.90 L 882.60 387.00 L 887.20 389.50 L 891.60 392.40 L 895.70 395.80 L 899.60 399.40 L 903.00 403.40 L 906.10 407.60 L 908.90 412.20 L 911.30 417.00 L 913.20 422.10 L 914.60 427.40 L 915.60 432.90 L 916.10 438.60 L 916.10 444.00 L 915.60 449.40 L 914.60 454.60 L 913.10 459.80 L 911.20 464.70 L 908.90 469.50 L 906.10 474.00 L 903.00 478.30 L 899.50 482.20 L 895.70 485.90 L 891.50 489.20 L 887.10 492.20 L 882.30 494.70 L 877.30 496.90 L 871.90 498.60 L 875.20 523.90 L 838.30 500.70 L 709.40 500.70 L 704.40 500.50 L 695.00 498.90 L 686.10 495.90 L 677.90 491.70 L 674.00 489.10 L 669.30 485.20 L 665.00 480.90 L 661.10 476.20 L 658.50 472.30 L 654.20 464.10 L 651.30 455.20 L 649.70 445.80 L 649.50 440.80 L 649.70 435.80 L 651.30 426.40 L 654.20 417.50 L 658.50 409.20 L 661.10 405.40 L 665.00 400.70 L 669.30 396.30 L 674.00 392.50 L 677.90 389.90 L 686.10 385.60 L 695.00 382.70 L 704.40 381.10 L 709.40 380.90 Z" fill="#00d680" fill-rule="nonzero" group-id="4,25" id="联合_301" node-id="35" stroke="none" target-height="143.00003" target-width="266.59998" target-x="649.5" target-y="380.9"></path><path d="M 837.60 441.70 L 837.40 444.10 L 836.80 446.20 L 835.90 448.20 L 833.10 451.50 L 829.30 453.70 L 824.80 454.50 L 820.40 453.70 L 816.60 451.50 L 813.80 448.20 L 812.30 444.10 L 812.00 441.70 L 812.30 439.40 L 812.80 437.30 L 815.10 433.50 L 818.40 430.70 L 820.40 429.70 L 822.50 429.20 L 824.80 428.90 L 829.30 429.70 L 833.10 432.00 L 835.90 435.30 L 836.80 437.30 L 837.60 441.70 Z" fill="#ffffff" fill-rule="nonzero" group-id="4,26" id="椭圆_714" node-id="36" stroke="none" target-height="25.600006" target-width="25.599976" target-x="812" target-y="428.9"></path><path d="M 798.00 441.70 L 797.20 446.20 L 794.90 450.00 L 791.60 452.80 L 789.60 453.70 L 785.20 454.50 L 782.80 454.30 L 780.70 453.70 L 776.90 451.50 L 774.10 448.20 L 772.60 444.10 L 772.40 441.70 L 772.60 439.40 L 773.20 437.30 L 775.40 433.50 L 778.70 430.70 L 780.70 429.70 L 785.20 428.90 L 787.50 429.20 L 789.60 429.70 L 793.40 432.00 L 796.20 435.30 L 797.20 437.30 L 797.70 439.40 L 798.00 441.70 Z" fill="#ffffff" fill-rule="nonzero" group-id="4,27" id="椭圆_715" node-id="37" stroke="none" target-height="25.600006" target-width="25.599976" target-x="772.4" target-y="428.9"></path><path d="M 758.30 441.70 L 757.50 446.20 L 755.30 450.00 L 752.00 452.80 L 750.00 453.70 L 745.50 454.50 L 741.00 453.70 L 737.20 451.50 L 734.50 448.20 L 732.90 444.10 L 732.70 441.70 L 732.90 439.40 L 733.50 437.30 L 735.70 433.50 L 739.00 430.70 L 741.00 429.70 L 745.50 428.90 L 750.00 429.70 L 753.80 432.00 L 756.50 435.30 L 757.50 437.30 L 758.30 441.70 Z" fill="#ffffff" fill-rule="nonzero" group-id="4,28" id="椭圆_716" node-id="38" stroke="none" target-height="25.600006" target-width="25.599976" target-x="732.7" target-y="428.9"></path><path d="M 726.00 822.10 L 725.70 824.70 L 724.90 827.30 L 723.50 829.80 L 721.50 832.50 L 718.70 835.20 L 715.10 838.00 L 710.60 840.90 L 705.10 843.70 L 698.50 846.60 L 684.80 851.30 L 667.70 855.60 L 655.80 857.90 L 642.80 859.80 L 628.50 861.50 L 614.30 862.60 L 599.30 863.30 L 583.50 863.60 L 567.70 863.30 L 552.70 862.60 L 538.50 861.50 L 524.20 859.80 L 511.20 857.90 L 499.30 855.60 L 482.20 851.30 L 468.50 846.60 L 461.90 843.70 L 456.40 840.90 L 451.90 838.00 L 448.30 835.20 L 445.50 832.50 L 443.50 829.80 L 442.10 827.30 L 441.30 824.70 L 441.00 822.10 L 441.30 819.50 L 442.10 816.90 L 443.50 814.30 L 445.50 811.70 L 448.30 809.00 L 451.90 806.20 L 456.40 803.30 L 461.90 800.50 L 468.50 797.60 L 482.20 792.90 L 499.30 788.60 L 511.20 786.30 L 524.20 784.30 L 538.50 782.70 L 552.70 781.60 L 567.70 780.90 L 583.50 780.60 L 599.30 780.90 L 614.30 781.60 L 628.50 782.70 L 642.80 784.30 L 655.80 786.30 L 667.70 788.60 L 684.80 792.90 L 698.50 797.60 L 705.10 800.50 L 710.60 803.30 L 715.10 806.20 L 718.70 809.00 L 721.50 811.70 L 723.50 814.30 L 724.90 816.90 L 725.70 819.50 L 726.00 822.10 Z" fill="#e1ebfa" fill-rule="nonzero" group-id="5" id="椭圆_798" node-id="39" stroke="none" target-height="83" target-width="285" target-x="441" target-y="780.6"></path><path d="M 556.00 788.70 L 556.00 796.80 L 535.50 816.30 L 533.50 819.70 L 532.80 821.60 L 532.40 823.60 L 532.60 825.40 L 533.90 827.30 L 535.00 828.00 L 538.30 828.60 L 541.00 828.30 L 544.60 827.60 L 553.50 824.70 L 568.00 818.50 L 583.10 810.90 L 587.70 807.90 L 589.70 805.80 L 590.50 804.40 L 591.00 802.90 L 591.00 801.20 L 590.30 799.10 L 589.00 797.10 L 587.10 794.80 L 578.80 786.50 L 577.40 783.90 L 577.20 782.10 L 576.70 781.80 L 573.20 782.10 L 570.10 782.90 L 563.70 785.30 L 556.00 788.70 Z" fill="#006cfb" fill-rule="nonzero" group-id="6,29,32" id="路径_1330" node-id="42" stroke="none" target-height="46.799988" target-width="58.599976" target-x="532.4" target-y="781.8"></path><path d="M 604.40 795.20 L 604.40 803.30 L 584.00 822.80 L 581.90 826.20 L 581.20 828.20 L 580.90 830.10 L 581.10 831.90 L 582.30 833.80 L 583.50 834.50 L 586.80 835.10 L 589.50 834.80 L 593.10 834.10 L 602.00 831.20 L 616.50 825.00 L 631.50 817.40 L 636.10 814.40 L 638.20 812.30 L 639.00 810.90 L 639.50 809.40 L 639.50 807.70 L 638.80 805.60 L 635.60 801.30 L 627.20 793.00 L 625.90 790.40 L 625.70 788.70 L 625.10 788.30 L 621.70 788.60 L 618.60 789.40 L 612.20 791.80 L 604.40 795.20 Z" fill="#006cfb" fill-rule="nonzero" group-id="6,29,33" id="路径_1332" node-id="43" stroke="none" target-height="46.799988" target-width="58.599976" target-x="580.9" target-y="788.3"></path><path d="M 523.30 578.10 L 517.80 617.50 L 516.00 632.70 L 514.10 653.00 L 513.80 674.10 L 514.10 682.30 L 515.70 696.60 L 518.40 708.60 L 522.50 721.00 L 533.70 747.00 L 548.50 782.70 L 550.00 785.80 L 550.90 786.90 L 553.90 788.70 L 556.80 789.50 L 560.50 789.90 L 564.20 789.90 L 568.10 789.30 L 573.00 787.80 L 577.10 785.20 L 578.60 783.60 L 579.90 781.60 L 580.60 779.50 L 580.90 777.00 L 580.60 774.10 L 577.70 763.10 L 563.00 720.20 L 559.40 708.90 L 557.90 702.20 L 559.20 684.30 L 564.30 627.80 L 562.00 585.80 Z" fill="#1f2a9d" fill-rule="nonzero" group-id="6,29,34" id="路径_1327" node-id="44" stroke="none" target-height="211.80005" target-width="67.10004" target-x="513.8" target-y="578.1"></path><g clip-path="url(#clip-path)" group-id="6,29,35" node-id="202"><path d="M 542.10 578.10 L 542.00 584.20 L 542.50 597.00 L 546.00 650.20 L 548.00 673.70 L 550.40 689.20 L 551.70 694.80 L 554.40 702.10 L 558.10 708.80 L 560.50 711.70 L 563.30 714.50 L 564.30 715.00 L 565.20 715.00 L 566.10 714.60 L 567.10 713.40 L 569.20 708.80 L 571.90 698.70 L 573.30 690.80 L 575.80 673.30 L 577.80 654.20 L 579.20 635.80 L 580.20 619.80 L 580.60 603.60 L 550.60 553.40 Z" fill="#1b2d91" fill-rule="nonzero" group-id="6,29,35,49" id="路径_1328" node-id="46" stroke="none" target-height="161.59998" target-width="38.599976" target-x="542" target-y="553.4"></path></g><path d="M 551.60 586.50 L 555.40 619.70 L 560.70 659.30 L 563.70 677.40 L 566.60 691.30 L 575.90 722.30 L 588.40 760.30 L 600.00 794.20 L 601.20 795.10 L 602.80 795.40 L 608.90 795.50 L 612.60 795.10 L 620.40 793.40 L 623.80 792.10 L 627.70 789.70 L 630.10 786.90 L 630.60 785.30 L 630.60 783.50 L 613.30 706.30 L 609.60 689.30 L 606.50 671.50 L 606.40 669.40 L 608.50 636.60 L 608.90 620.10 L 608.70 611.60 L 607.50 595.20 L 606.40 587.80 L 605.40 583.00 L 602.80 575.10 L 601.40 572.50 L 599.90 570.50 L 598.30 568.90 L 596.60 567.80 L 593.90 566.80 L 591.10 566.30 L 588.00 566.30 L 584.80 566.80 L 578.10 569.00 L 573.20 571.40 L 568.40 574.10 L 559.90 579.90 L 551.60 586.50 Z" fill="#1d2882" fill-rule="nonzero" group-id="6,29,36" id="路径_1331" node-id="47" stroke="none" target-height="229.20001" target-width="79" target-x="551.6" target-y="566.3"></path><g clip-path="url(#clip-path-2)" group-id="6,29,37" node-id="212"><path d="M 587.20 582.10 L 595.00 658.10 L 599.20 693.00 L 600.10 698.90 L 608.40 740.20 L 612.40 757.00 L 617.10 772.70 L 619.80 779.70 L 622.50 785.40 L 624.60 788.80 L 626.60 791.40 L 628.60 793.10 L 631.70 795.10 L 634.30 796.30 L 636.60 796.90 L 638.90 797.10 L 642.70 796.40 L 645.10 795.10 L 647.00 793.50 L 648.60 791.80 L 650.40 788.80 L 633.90 689.80 L 628.60 606.30 L 612.00 570.90 Z" fill="#112071" fill-rule="nonzero" group-id="6,29,37,50" id="路径_1333" node-id="49" stroke="none" target-height="226.19995" target-width="63.200012" target-x="587.2" target-y="570.9"></path></g><path d="M 532.20 400.20 L 532.20 416.90 L 533.70 435.10 L 537.80 444.30 L 549.40 444.30 L 552.00 422.80 L 548.40 410.60 L 547.40 400.20 Z" fill="#ee9d99" fill-rule="nonzero" group-id="6,30,38" id="路径_1313" node-id="51" stroke="none" target-height="44.099976" target-width="19.799988" target-x="532.2" target-y="400.2"></path><path d="M 515.10 360.30 L 513.60 376.80 L 513.20 389.30 L 514.00 394.70 L 514.60 396.50 L 516.50 399.60 L 517.80 400.80 L 519.70 401.70 L 522.20 402.20 L 527.80 402.10 L 534.30 401.20 L 547.10 398.50 L 557.40 384.80 L 552.20 363.40 L 534.70 356.30 L 517.50 353.00 Z" fill="#feaba7" fill-rule="nonzero" group-id="6,30,39" id="路径_1314" node-id="52" stroke="none" target-height="49.200012" target-width="44.200012" target-x="513.2" target-y="353"></path><path d="M 514.90 369.10 L 511.80 366.20 L 510.60 364.70 L 508.90 360.60 L 508.60 358.10 L 508.70 347.00 L 509.30 342.90 L 510.10 341.40 L 511.70 341.50 L 517.40 344.10 L 519.80 344.70 L 522.90 345.00 L 537.40 343.80 L 545.70 344.00 L 550.40 345.00 L 555.50 348.10 L 561.60 353.50 L 564.30 356.60 L 566.50 360.00 L 568.20 363.70 L 569.00 366.70 L 569.40 370.40 L 569.40 374.20 L 568.80 378.20 L 567.90 382.10 L 566.50 385.70 L 563.90 389.90 L 562.30 391.60 L 555.70 397.10 L 550.40 400.90 L 548.00 402.30 L 543.80 402.40 L 540.90 401.60 L 539.70 400.70 L 538.80 399.20 L 538.50 396.60 L 539.80 391.10 L 540.80 389.00 L 543.20 386.20 L 546.90 383.90 L 548.00 382.70 L 548.70 381.30 L 549.20 378.00 L 548.90 376.30 L 547.30 373.00 L 546.00 371.70 L 544.40 370.70 L 542.40 370.00 L 536.10 369.00 L 533.00 367.50 L 530.20 364.50 L 528.10 361.30 L 525.30 356.10 L 514.90 362.30 L 514.90 369.10 Z" fill="#1d288f" fill-rule="nonzero" group-id="6,30,40" id="路径_1315" node-id="53" stroke="none" target-height="61" target-width="60.80002" target-x="508.6" target-y="341.4"></path><path d="M 575.70 612.70 L 684.50 590.20 L 699.80 594.70 L 714.30 672.30 L 606.70 693.80 L 590.20 691.50 Z" fill="#171c53" fill-rule="nonzero" group-id="6,31,41,51" id="路径_1324" node-id="56" stroke="none" target-height="103.599976" target-width="138.59998" target-x="575.7" target-y="590.2"></path><path d="M 591.20 615.80 L 607.00 693.40 L 714.30 672.30 L 700.00 594.90 Z" fill="#1e2889" fill-rule="nonzero" group-id="6,31,41,52" id="路径_1325" node-id="57" stroke="none" target-height="98.5" target-width="123.099976" target-x="591.2" target-y="594.9"></path><path d="M 620.00 606.40 L 619.30 602.70 L 619.30 600.10 L 619.70 597.40 L 620.70 594.40 L 621.80 592.60 L 623.30 590.80 L 625.50 589.10 L 627.80 587.70 L 631.00 586.60 L 635.10 585.60 L 639.30 585.20 L 642.70 585.20 L 648.00 586.40 L 651.70 588.50 L 653.70 590.60 L 655.80 594.70 L 656.40 597.90" fill="none" group-id="6,31,41,53" id="路径_1326" node-id="58" stroke="#00015f" stroke-linecap="round" stroke-width="6" target-height="21.200012" target-width="37.100037" target-x="619.3" target-y="585.2"></path><path d="M 624.60 570.40 L 623.90 578.00 L 623.90 584.50 L 624.60 590.10 L 625.70 593.00 L 627.00 595.10 L 628.50 596.50 L 630.40 597.40 L 632.40 597.80 L 634.70 597.50 L 638.10 596.40 L 639.70 595.40 L 641.70 592.90 L 642.60 589.60 L 642.50 585.30 L 640.30 576.50 L 638.90 572.20 L 635.10 564.20 Z" fill="#fdaaa2" fill-rule="nonzero" group-id="6,31,42" id="路径_1322" node-id="59" stroke="none" target-height="33.599976" target-width="18.699951" target-x="623.9" target-y="564.2"></path><path d="M 464.40 498.20 L 460.90 494.30 L 455.20 489.50 L 451.50 487.30 L 448.90 486.20 L 446.20 485.50 L 443.30 485.20 L 437.60 485.30 L 432.50 486.00 L 426.50 487.60 L 424.40 488.60 L 422.50 489.90 L 421.40 491.20 L 421.00 492.60 L 421.10 494.10 L 422.40 496.70 L 423.50 497.70 L 427.90 499.60 L 434.30 500.50 L 444.50 501.10 L 449.40 501.90 L 458.00 504.50 L 466.10 508.10 Z" fill="#fdaaa2" fill-rule="nonzero" group-id="6,31,43" id="路径_1323" node-id="60" stroke="none" target-height="22.899994" target-width="45.100006" target-x="421" target-y="485.2"></path><path d="M 532.20 410.40 L 537.30 419.10 L 540.20 443.00 L 542.40 420.40 L 548.80 409.40 L 556.50 415.50 L 560.80 415.50 L 560.80 427.90 L 558.00 445.30 L 548.80 464.10 L 545.70 467.90 L 532.20 456.10 L 527.90 441.80 L 520.00 419.00 L 523.30 419.00 Z" fill="#aed3f8" fill-rule="nonzero" group-id="6,31,44" id="路径_1316" node-id="61" stroke="none" target-height="58.5" target-width="40.799988" target-x="520" target-y="409.4"></path><path d="M 520.00 419.10 L 540.90 462.70 L 545.00 462.70 L 560.50 415.30 L 566.10 415.30 L 572.00 419.10 L 572.00 453.30 L 561.80 480.50 L 540.90 511.10 L 527.60 526.40 L 515.80 526.30 L 511.20 525.90 L 498.50 523.70 L 484.70 519.70 L 477.30 517.00 L 469.00 513.50 L 459.60 509.10 L 465.30 493.90 L 483.80 499.80 L 493.30 502.40 L 501.30 504.20 L 504.50 504.60 L 506.10 504.50 L 506.60 504.00 L 507.80 500.00 L 508.70 489.40 L 509.10 475.10 L 509.10 431.10 L 509.30 430.40 L 520.00 419.10 Z" fill="#5267d5" fill-rule="nonzero" group-id="6,31,45" id="路径_1317" node-id="62" stroke="none" target-height="111.10004" target-width="112.399994" target-x="459.6" target-y="415.3"></path><path d="M 518.00 420.10 L 511.00 426.10 L 509.40 428.30 L 522.90 578.20 L 530.10 582.70 L 538.70 586.40 L 544.00 587.90 L 550.20 589.20 L 559.20 589.90 L 564.30 589.80 L 570.70 589.10 L 581.20 587.00 L 588.30 584.70 L 593.60 582.50 L 598.30 580.10 L 603.70 576.50 L 598.80 468.50 L 587.20 420.10 L 579.20 417.00 L 575.70 416.00 L 572.00 415.20 L 568.40 414.90 L 565.30 415.10 L 567.10 444.70 L 560.00 445.70 L 560.00 453.70 L 543.70 480.80 L 525.70 453.70 L 525.70 445.70 L 518.00 444.70 Z" fill="#ffaa01" fill-rule="nonzero" group-id="6,31,46" id="路径_1318" node-id="63" stroke="none" target-height="175.00003" target-width="94.30002" target-x="509.4" target-y="414.9"></path><g clip-path="url(#clip-path-3)" group-id="6,31,47" node-id="268"><path d="M 574.30 427.80 L 577.10 462.80 L 588.80 588.10 L 605.10 582.50 L 608.70 569.60 L 608.70 443.30 L 588.80 419.80 Z" fill="#fd9002" fill-rule="nonzero" group-id="6,31,47,54" id="路径_1319" node-id="65" stroke="none" target-height="168.29999" target-width="34.400024" target-x="574.3" target-y="419.8"></path></g><path d="M 577.50 442.10 L 588.40 476.80 L 601.30 516.20 L 613.60 551.80 L 620.00 567.80 L 620.90 569.20 L 624.00 571.30 L 626.00 572.00 L 629.10 572.40 L 632.30 572.30 L 636.00 571.30 L 638.50 569.30 L 639.10 568.00 L 639.20 566.40 L 638.80 564.60 L 633.10 545.50 L 607.40 464.60 L 602.90 449.90 L 599.80 438.50 L 598.30 434.50 L 596.40 430.80 L 594.10 427.30 L 590.60 423.60 L 588.80 422.40 L 586.80 421.50 L 584.90 421.30 L 583.00 421.60 L 581.10 422.40 L 579.70 423.50 L 578.60 424.90 L 577.30 427.40 L 576.70 430.30 L 576.40 433.30 L 576.50 436.40 L 577.50 442.10 Z" fill="#5366cf" fill-rule="nonzero" group-id="6,31,48" id="路径_1321" node-id="66" stroke="none" target-height="151.10004" target-width="62.799988" target-x="576.4" target-y="421.3"></path></g></svg>