<?xml version="1.0" standalone="no"?><!DOCTYPE svg PUBLIC "-//W3C//DTD SVG 1.1//EN" "http://www.w3.org/Graphics/SVG/1.1/DTD/svg11.dtd"><svg t="1721342669927" class="icon" viewBox="0 0 1024 1024" version="1.1" xmlns="http://www.w3.org/2000/svg" p-id="2796" xmlns:xlink="http://www.w3.org/1999/xlink" width="128" height="128"><path d="M512 613.589333c167.168 0 306.56 112.469333 337.792 261.632 1.109333 5.205333 2.133333 11.52 2.986667 18.901334A39.765333 39.765333 0 0 1 813.312 938.666667c-23.466667 0-43.349333-17.152-46.805333-40.32l-1.28-7.850667a115.413333 115.413333 0 0 0-0.768-3.413333c-25.045333-109.866667-128.597333-192.213333-252.501334-192.213334-123.306667 0-226.432 81.536-252.16 190.592l-1.578666 8.106667a206.250667 206.250667 0 0 0-0.768 4.693333A47.36 47.36 0 0 1 210.602667 938.666667a39.68 39.68 0 0 1-39.381334-44.458667l1.664-11.861333a180.053333 180.053333 0 0 1 1.834667-9.856c32.384-147.797333 171.093333-258.901333 337.237333-258.901334zM512 85.333333c142.677333 0 258.261333 109.098667 258.261333 243.797334 0 134.698667-115.626667 243.84-258.304 243.84-142.72 0-258.304-109.141333-258.304-243.84S369.28 85.333333 512 85.333333z m0 81.28c-95.146667 0-172.245333 72.746667-172.245333 162.56 0 89.770667 77.056 162.517333 172.202666 162.517334 95.146667 0 172.202667-72.746667 172.202667-162.56 0-89.770667-77.056-162.56-172.202667-162.56z" fill="#5D6E7F" p-id="2797"></path></svg>