<?xml version="1.0" standalone="no"?><!DOCTYPE svg PUBLIC "-//W3C//DTD SVG 1.1//EN" "http://www.w3.org/Graphics/SVG/1.1/DTD/svg11.dtd"><svg t="1723381271088" class="icon" viewBox="0 0 1024 1024" version="1.1" xmlns="http://www.w3.org/2000/svg" p-id="7084" xmlns:xlink="http://www.w3.org/1999/xlink" width="128" height="128"><path d="M888.3 279.8v412.5l-378 146.6-377.9-146.6V279.8H66.1v436.1c-0.1 13.9 8.3 26.5 21.2 31.6l411.1 159.3c3.8 1.3 7.9 2 11.9 2 4.1 0.1 8.1-0.6 11.9-2l411.1-159.3c12.8-5.3 21.2-17.8 21.2-31.6V279.8h-66.2z" fill="#1296db" p-id="7085" data-spm-anchor-id="a313x.search_index.0.i0.17213a81TgwYsn" class="selected"></path><path d="M233.4 620.7l263.9 110.8c4 2 8.5 2.9 13 2.7 6.9 0.1 13.6-2.1 19.1-6.2 9.4-6.5 15.1-17.2 15-28.7V276.8l195.6-82V566l-151.3 63.3c-1 0.4-1.9 0.9-2.8 1.4l29.6 61.1 171.7-71.1c12.8-5.2 21.2-17.6 21.2-31.5V143.4c0.2-11.5-5.5-22.3-15-28.7-9.7-6-21.6-7-32.1-2.7l-264 110.8c-12.8 5.2-21.2 17.6-21.2 31.5v393.9l-195.6-82.1V194.8l114.7 58c0.2 0.1 0.4 0.1 0.6 0.2l28.7-61.3c-1.1-0.6-2.1-1.2-3.3-1.7l-161.8-78c-10.5-4.6-22.6-3.6-32.1 2.7-9.4 6.5-15.1 17.2-15 28.7v445.7c-0.1 14 8.3 26.4 21.1 31.6z" fill="#3E75FF" p-id="7086"></path></svg>